<svg width="364" height="369" viewBox="0 0 364 369" fill="none" xmlns="http://www.w3.org/2000/svg">
<path d="M158.812 368.577C134.475 368.577 99 361.565 99 338.877C99 328.152 107.25 324.027 114.262 324.027C134.062 324.027 139.012 355.79 166.237 355.79C188.925 355.79 223.575 333.515 223.575 292.677C223.575 254.728 194.7 238.64 164.175 238.64C150.562 238.64 139.012 241.94 128.287 246.065L124.162 234.928L153.45 221.315C190.162 204.403 209.137 192.853 209.137 167.278C209.137 146.653 196.762 131.803 170.775 131.803C155.1 131.803 133.237 137.165 114.262 161.09L106.425 154.078C125.812 121.903 154.687 104.99 187.275 104.99C223.575 104.99 247.912 126.028 247.5 157.378C247.087 185.015 226.875 202.34 196.35 218.015C228.525 220.49 265.65 237.403 265.65 281.127C265.65 331.04 214.912 368.577 158.812 368.577Z" fill="url(#paint0_linear_102_18)"/>
<path d="M123.555 29.9902L115.91 12.302L115.25 26.6542C115.145 28.9825 116.431 29.052 118.412 29.3995V29.9902H111.149V29.3995C112.956 29.052 113.964 28.9825 114.068 26.6542L114.798 11.4333C114.902 9.10496 113.686 9.03546 111.879 8.68795V8.09718H117.057C117.196 8.89645 117.682 9.76523 118.134 10.773L124.876 26.3066L130.853 10.773C131.235 9.76523 131.652 8.89645 131.791 8.09718H137.56V8.68795C135.753 9.03546 134.606 9.10496 134.71 11.4333L135.44 26.6542C135.544 28.9825 136.482 29.052 138.29 29.3995V29.9902H129.845V29.3995C131.652 29.052 132.868 28.9825 132.764 26.6542L132.104 10.8773L124.598 29.9902H123.555ZM140.436 29.3995C142.243 29.052 143.321 28.9825 143.321 26.6542V11.4333C143.321 9.10496 142.243 9.03546 140.436 8.68795V8.09718H156.63L156.943 12.8581H156.178C155.866 10.3907 155.275 9.17446 152.773 9.17446H149.263C146.622 9.17446 145.996 9.41772 145.996 11.8155V18.4182H149.089C153.294 18.4182 153.711 17.6189 153.92 15.4991H154.476V22.3798H153.92C153.711 20.26 153.294 19.4607 149.089 19.4607H145.996V26.2719C145.996 28.6697 146.622 28.913 149.263 28.913H152.043C154.788 28.913 156.074 27.9399 157.36 24.9514H158.124L156.7 29.9902H140.436V29.3995ZM148.359 5.03911C148.985 3.30156 149.819 1.32076 150.757 0.000229262C151.522 0.000229262 152.634 0.903753 152.877 1.42502C151.452 2.43279 150.236 3.89233 148.846 5.45612L148.359 5.03911ZM165.011 29.3995C167.478 29.052 168.59 28.9825 168.59 26.6542V9.00071H166.158C162.3 9.00071 161.466 10.634 161.015 13.7268H160.459L160.737 7.74967L162.335 8.09718H177.521L179.12 7.74967L179.398 13.7268H178.842C178.39 10.634 177.556 9.00071 173.803 9.00071H171.266V26.6542C171.266 28.9825 172.378 29.052 174.846 29.3995V29.9902H165.011V29.3995ZM192.835 30.4072C186.406 30.4072 181.923 25.3684 181.923 19.0437C181.923 12.8581 186.406 7.54117 192.974 7.54117C199.402 7.54117 203.92 12.6495 203.92 18.87C203.92 25.1599 199.402 30.4072 192.835 30.4072ZM184.877 18.0012C184.877 24.6734 188.942 29.33 193.425 29.33C197.387 29.33 200.966 25.8549 200.966 19.9125C200.966 13.3446 196.9 8.61845 192.383 8.61845C188.456 8.61845 184.877 12.163 184.877 18.0012ZM206.273 29.3995C208.08 29.052 209.157 28.9825 209.157 26.6542V11.4333C209.157 9.10496 208.08 9.03546 206.273 8.68795V8.09718H214.231C220.868 8.09718 226.602 11.1553 226.602 18.9047C226.602 26.8279 221.007 29.9902 214.231 29.9902H206.273V29.3995ZM211.833 25.5421C211.833 27.9399 212.563 28.8782 215.204 28.8782C221.285 28.8782 223.579 25.2989 223.579 19.2522C223.579 13.3098 221.25 9.20921 213.883 9.20921H211.833V25.5421ZM241.058 30.4072C234.629 30.4072 230.146 25.3684 230.146 19.0437C230.146 12.8581 234.629 7.54117 241.197 7.54117C247.626 7.54117 252.144 12.6495 252.144 18.87C252.144 25.1599 247.626 30.4072 241.058 30.4072ZM233.1 18.0012C233.1 24.6734 237.166 29.33 241.649 29.33C245.611 29.33 249.19 25.8549 249.19 19.9125C249.19 13.3446 245.124 8.61845 240.606 8.61845C236.68 8.61845 233.1 12.163 233.1 18.0012ZM86.121 62.3995C87.928 62.052 89.0053 61.9825 89.0053 59.6542V44.4333C89.0053 42.105 87.928 42.0355 86.121 41.6879V41.0972H102.315L102.628 45.8581H101.863C101.55 43.3907 100.96 42.1745 98.4575 42.1745H94.9477C92.3066 42.1745 91.6811 42.4177 91.6811 44.8155V51.4182H94.774C98.9788 51.4182 99.3958 50.6189 99.6043 48.4991H100.16V55.3798H99.6043C99.3958 53.26 98.9788 52.4607 94.774 52.4607H91.6811V59.2719C91.6811 61.6697 92.3066 61.913 94.9477 61.913H97.7278C100.473 61.913 101.759 60.9399 103.045 57.9514H103.809L102.384 62.9902H86.121V62.3995ZM119.731 62.3995C121.573 62.052 122.476 61.9825 121.295 60.2449L116.499 53.121L111.634 60.1407C110.279 62.0867 111.252 62.052 113.094 62.3995V62.9902H105.796V62.3995C108.229 62.052 108.889 62.0867 110.244 60.1754L115.874 52.1827L110.453 44.0858C109.132 42.1397 108.472 42.0355 106.213 41.6879V41.0972H115.04V41.6879C113.198 42.0355 112.399 42.2092 113.684 44.0858L117.889 50.3409L122.303 44.0163C123.623 42.1397 122.65 42.0355 120.808 41.6879V41.0972H127.898V41.6879C125.673 42.0355 124.978 42.105 123.623 44.0163L118.515 51.2792L124.492 60.2102C125.673 61.9477 126.403 62.052 128.801 62.3995V62.9902H119.731V62.3995ZM143.014 63.4072C136.377 63.4072 131.442 58.7506 131.442 51.9047C131.442 45.4063 135.96 40.5412 143.431 40.5412C146.524 40.5412 148.818 41.3752 150.034 42.1397C150.034 43.634 150.104 45.1283 150.277 46.8311H149.235C148.401 43.1822 145.794 41.6184 142.528 41.6184C137.941 41.6184 134.535 44.7808 134.535 50.8274C134.535 57.8819 139.053 61.913 144.231 61.913C145.794 61.913 148.644 61.5307 149.999 60.0017L150.59 60.5924C149.2 62.1215 146.489 63.4072 143.014 63.4072ZM153.111 62.3995C154.918 62.052 155.996 61.9825 155.996 59.6542V44.4333C155.996 42.105 154.918 42.0355 153.111 41.6879V41.0972H162.39V41.6879C160.583 42.0355 158.672 42.105 158.672 44.4333V59.3066C158.672 61.7045 159.297 61.9477 161.938 61.9477H164.822C167.568 61.9477 168.819 60.8357 170.139 57.7429H170.869L169.444 62.9902H153.111V62.3995ZM183.987 63.4072C180.477 63.4072 175.577 62.0172 175.577 54.3025V44.4333C175.577 42.105 174.5 42.0355 172.693 41.6879V41.0972H181.172V41.6879C179.365 42.0355 178.288 42.105 178.288 44.4333V54.6848C178.288 60.8009 181.658 61.9825 184.508 61.9825C187.253 61.9825 190.972 60.8704 190.972 55.206V44.4333C190.972 42.105 189.825 42.0355 188.018 41.6879V41.0972H195.455V41.6879C193.474 42.0355 192.327 42.105 192.327 44.4333V54.511C192.327 61.4959 187.948 63.4072 183.987 63.4072ZM204.191 63.4072C201.133 63.4072 198.666 61.8435 197.693 61.2179L197.415 56.8393H198.11C198.874 59.9322 201.064 62.4342 204.191 62.4342C206.763 62.4342 208.778 60.5577 208.778 57.9861C208.778 55.1018 206.485 53.8508 203.531 52.3565C200.82 50.9664 197.866 49.1594 197.866 45.719C197.866 43.0432 199.708 40.5412 204.365 40.5412C207.805 40.5412 209.265 41.8965 210.342 42.5915L210.446 47.0396H209.821C209.126 44.1553 207.388 41.5142 204.191 41.5142C201.62 41.5142 200.334 43.078 200.334 45.024C200.334 47.3176 202.245 48.7076 205.373 50.3062C207.736 51.5224 211.489 53.3642 211.489 57.3258C211.489 61.0789 207.979 63.4072 204.191 63.4072ZM213.824 62.3995C215.631 62.052 216.708 61.9825 216.708 59.6542V44.4333C216.708 42.105 215.631 42.0355 213.824 41.6879V41.0972H222.268V41.6879C220.461 42.0355 219.384 42.105 219.384 44.4333V59.6542C219.384 61.9825 220.461 62.052 222.268 62.3995V62.9902H213.824V62.3995ZM226.532 43.7035C225.837 42.105 225.524 42.0355 223.717 41.6879V41.0972H231.744V41.6879C230.25 42.0355 228.86 42.0702 229.59 43.7035L236.436 59.6194L243.004 43.634C243.664 42.0702 242.378 42.0355 240.884 41.6879V41.0972H247.243V41.6879C245.436 42.0355 244.915 42.0007 244.289 43.5992L236.158 63.2335H234.976L226.532 43.7035ZM258.926 63.4072C252.497 63.4072 248.014 58.3684 248.014 52.0437C248.014 45.8581 252.497 40.5412 259.065 40.5412C265.494 40.5412 270.011 45.6495 270.011 51.87C270.011 58.1599 265.494 63.4072 258.926 63.4072ZM250.968 51.0012C250.968 57.6734 255.034 62.33 259.516 62.33C263.478 62.33 267.057 58.8549 267.057 52.9125C267.057 46.3446 262.992 41.6184 258.474 41.6184C254.547 41.6184 250.968 45.163 250.968 51.0012ZM275.34 51.4529C274.402 51.4529 273.568 50.7232 273.568 49.7502C273.568 48.7771 274.402 48.0474 275.34 48.0474C276.313 48.0474 277.147 48.7771 277.147 49.7502C277.147 50.7232 276.313 51.4529 275.34 51.4529ZM273.568 61.635C273.568 60.6619 274.402 59.9322 275.34 59.9322C276.313 59.9322 277.147 60.6619 277.147 61.635C277.147 62.608 276.313 63.3377 275.34 63.3377C274.402 63.3377 273.568 62.608 273.568 61.635Z" fill="white"/>
<rect x="25" y="254.99" width="315" height="61" fill="#0F0F19"/>
<path d="M51.2083 280.399C53.0154 280.052 54.0927 279.982 54.0927 277.654V262.433C54.0927 260.105 53.0154 260.035 51.2083 259.688V259.097H58.9578C65.0044 259.097 69.0703 260.904 69.0703 265.526C69.0703 270.078 65.1087 272.407 58.3323 272.407C57.7763 272.407 57.7763 271.329 58.3323 271.329C63.8577 271.329 66.1165 269.244 66.1165 265.735C66.1165 262.399 64.0662 260.174 59.3053 260.174C57.1855 260.174 56.7685 260.73 56.7685 261.773V277.654C56.7685 279.982 57.8458 280.052 59.6528 280.399V280.99H51.2083V280.399ZM71.0611 280.399C72.8682 280.052 73.9455 279.982 73.9455 277.654V262.433C73.9455 260.105 72.8682 260.035 71.0611 259.688V259.097H79.5056V259.688C77.6986 260.035 76.6213 260.105 76.6213 262.433V277.654C76.6213 279.982 77.6986 280.052 79.5056 280.399V280.99H71.0611V280.399ZM81.6493 280.399C83.4563 280.052 84.5336 279.982 84.5336 277.654V262.433C84.5336 260.105 83.4563 260.035 81.6493 259.688V259.097H90.9278V259.688C89.1207 260.035 87.2094 260.105 87.2094 262.433V277.307C87.2094 279.704 87.8349 279.948 90.476 279.948H93.3603C96.1056 279.948 97.3567 278.836 98.6772 275.743H99.407L97.9822 280.99H81.6493V280.399ZM100.094 280.399C101.901 280.156 102.388 280.017 103.048 278.453L111.18 258.854H112.361L120.806 278.349C121.536 280.017 121.814 280.156 123.621 280.399V280.99H115.593V280.399C117.088 280.156 118.478 280.017 117.748 278.349L115.802 273.797H106.245L104.334 278.419C103.674 280.017 104.96 280.156 106.454 280.399V280.99H100.094V280.399ZM106.662 272.789H115.35L110.902 262.433L106.662 272.789ZM125.427 280.399C127.234 280.052 128.312 279.982 128.312 277.654V262.433C128.312 260.105 127.234 260.035 125.427 259.688V259.097H133.524C139.501 259.097 142.837 261.008 142.837 265.109C142.837 268.376 140.648 270.391 136.165 270.982C136.93 271.19 137.868 271.816 138.911 273.449L141.204 276.959C142.559 278.975 143.984 280.955 145.861 280.365V280.99C145.27 281.338 145.027 281.546 144.019 281.546C141.656 281.546 140.37 280.434 138.702 277.863L135.887 273.588C134.671 271.851 133.455 271.295 130.987 271.19V277.654C130.987 279.982 132.065 280.052 133.872 280.399V280.99H125.427V280.399ZM130.987 270.183H133.802C138.389 270.183 140.057 268.341 140.057 265.318C140.057 262.26 138.355 260.174 133.906 260.174C131.37 260.174 130.987 260.73 130.987 261.773V270.183ZM147.656 280.399C149.463 280.052 150.54 279.982 150.54 277.654V262.433C150.54 260.105 149.463 260.035 147.656 259.688V259.097H163.849L164.162 263.858H163.398C163.085 261.391 162.494 260.174 159.992 260.174H156.482C153.841 260.174 153.216 260.418 153.216 262.816V269.418H156.309C160.513 269.418 160.93 268.619 161.139 266.499H161.695V273.38H161.139C160.93 271.26 160.513 270.461 156.309 270.461H153.216V277.272C153.216 279.67 153.841 279.913 156.482 279.913H159.262C162.008 279.913 163.293 278.94 164.579 275.951H165.344L163.919 280.99H147.656V280.399ZM174.369 281.407C171.311 281.407 168.844 279.843 167.871 279.218L167.593 274.839H168.288C169.052 277.932 171.241 280.434 174.369 280.434C176.941 280.434 178.956 278.558 178.956 275.986C178.956 273.102 176.663 271.851 173.709 270.356C170.998 268.966 168.044 267.159 168.044 263.719C168.044 261.043 169.886 258.541 174.543 258.541C177.983 258.541 179.443 259.896 180.52 260.591L180.624 265.04H179.999C179.304 262.155 177.566 259.514 174.369 259.514C171.797 259.514 170.512 261.078 170.512 263.024C170.512 265.318 172.423 266.708 175.55 268.306C177.914 269.522 181.667 271.364 181.667 275.326C181.667 279.079 178.157 281.407 174.369 281.407ZM192.044 280.399C193.851 280.052 194.929 279.982 194.929 277.654V262.433C194.929 260.105 193.851 260.035 192.044 259.688V259.097H199.794C205.84 259.097 209.906 260.904 209.906 265.526C209.906 270.078 205.945 272.407 199.168 272.407C198.612 272.407 198.612 271.329 199.168 271.329C204.694 271.329 206.953 269.244 206.953 265.735C206.953 262.399 204.902 260.174 200.141 260.174C198.022 260.174 197.605 260.73 197.605 261.773V277.654C197.605 279.982 198.682 280.052 200.489 280.399V280.99H192.044V280.399ZM209.098 280.399C210.905 280.156 211.392 280.017 212.052 278.453L220.184 258.854H221.365L229.81 278.349C230.539 280.017 230.817 280.156 232.624 280.399V280.99H224.597V280.399C226.091 280.156 227.481 280.017 226.752 278.349L224.806 273.797H215.249L213.338 278.419C212.677 280.017 213.963 280.156 215.458 280.399V280.99H209.098V280.399ZM215.666 272.789H224.354L219.906 262.433L215.666 272.789ZM234.431 280.399C236.238 280.052 237.315 279.982 237.315 277.654V262.433C237.315 260.105 236.238 260.035 234.431 259.688V259.097H242.528C248.505 259.097 251.841 261.008 251.841 265.109C251.841 268.376 249.652 270.391 245.169 270.982C245.934 271.19 246.872 271.816 247.914 273.449L250.208 276.959C251.563 278.975 252.988 280.955 254.864 280.365V280.99C254.274 281.338 254.03 281.546 253.023 281.546C250.66 281.546 249.374 280.434 247.706 277.863L244.891 273.588C243.675 271.851 242.458 271.295 239.991 271.19V277.654C239.991 279.982 241.068 280.052 242.875 280.399V280.99H234.431V280.399ZM239.991 270.183H242.806C247.393 270.183 249.061 268.341 249.061 265.318C249.061 262.26 247.358 260.174 242.91 260.174C240.373 260.174 239.991 260.73 239.991 261.773V270.183ZM255.93 280.399C257.737 280.156 258.224 280.017 258.884 278.453L267.016 258.854H268.197L276.642 278.349C277.372 280.017 277.65 280.156 279.457 280.399V280.99H271.429V280.399C272.924 280.156 274.314 280.017 273.584 278.349L271.638 273.797H262.081L260.17 278.419C259.51 280.017 260.795 280.156 262.29 280.399V280.99H255.93V280.399ZM262.498 272.789H271.186L266.738 262.433L262.498 272.789ZM300.234 281.407C293.805 281.407 289.322 276.368 289.322 270.044C289.322 263.858 293.805 258.541 300.373 258.541C306.802 258.541 311.32 263.65 311.32 269.87C311.32 276.16 306.802 281.407 300.234 281.407ZM292.276 269.001C292.276 275.673 296.342 280.33 300.825 280.33C304.787 280.33 308.366 276.855 308.366 270.912C308.366 264.345 304.3 259.618 299.782 259.618C295.856 259.618 292.276 263.163 292.276 269.001ZM38.617 314.407C31.9796 314.407 27.0449 309.751 27.0449 302.905C27.0449 296.406 31.5626 291.541 39.034 291.541C42.1268 291.541 44.4204 292.375 45.6367 293.14C45.6367 294.634 45.7062 296.128 45.8799 297.831H44.8374C44.0034 294.182 41.397 292.618 38.1305 292.618C33.5434 292.618 30.1378 295.781 30.1378 301.827C30.1378 308.882 34.6554 312.913 39.8333 312.913C41.397 312.913 44.2466 312.531 45.6019 311.002L46.1927 311.592C44.8026 313.121 42.0921 314.407 38.617 314.407ZM60.3208 314.407C53.8919 314.407 49.409 309.368 49.409 303.044C49.409 296.858 53.8919 291.541 60.4598 291.541C66.8887 291.541 71.4063 296.65 71.4063 302.87C71.4063 309.16 66.8887 314.407 60.3208 314.407ZM52.3629 302.001C52.3629 308.673 56.4287 313.33 60.9116 313.33C64.8732 313.33 68.4525 309.855 68.4525 303.912C68.4525 297.345 64.3867 292.618 59.869 292.618C55.9422 292.618 52.3629 296.163 52.3629 302.001ZM91.7641 313.99L77.829 295.503V310.654C77.829 312.982 78.9758 313.052 80.9566 313.399V313.99H73.5894V313.399C75.3964 313.052 76.5432 312.982 76.5432 310.654V295.433C76.5432 293.105 75.3964 293.035 73.5894 292.688V292.097H78.5588L91.5903 309.229V295.433C91.5903 293.105 90.4436 293.035 88.4628 292.688V292.097H95.8647V292.688C94.0577 293.035 92.9109 293.105 92.9109 295.433V313.99H91.7641ZM102.576 313.399C105.043 313.052 106.155 312.982 106.155 310.654V293.001H103.723C99.8654 293.001 99.0314 294.634 98.5796 297.727H98.0236L98.3016 291.75L99.9001 292.097H115.086L116.685 291.75L116.963 297.727H116.407C115.955 294.634 115.121 293.001 111.368 293.001H108.831V310.654C108.831 312.982 109.943 313.052 112.41 313.399V313.99H102.576V313.399ZM119.132 313.399C120.939 313.052 122.016 312.982 122.016 310.654V295.433C122.016 293.105 120.939 293.035 119.132 292.688V292.097H127.229C133.206 292.097 136.542 294.008 136.542 298.109C136.542 301.376 134.353 303.391 129.87 303.982C130.635 304.19 131.573 304.816 132.615 306.449L134.909 309.959C136.264 311.975 137.689 313.955 139.566 313.365V313.99C138.975 314.338 138.732 314.546 137.724 314.546C135.361 314.546 134.075 313.434 132.407 310.863L129.592 306.588C128.376 304.851 127.159 304.295 124.692 304.19V310.654C124.692 312.982 125.769 313.052 127.577 313.399V313.99H119.132V313.399ZM124.692 303.183H127.507C132.094 303.183 133.762 301.341 133.762 298.318C133.762 295.26 132.059 293.174 127.611 293.174C125.074 293.174 124.692 293.73 124.692 294.773V303.183ZM152.085 314.407C145.656 314.407 141.173 309.368 141.173 303.044C141.173 296.858 145.656 291.541 152.224 291.541C158.653 291.541 163.17 296.65 163.17 302.87C163.17 309.16 158.653 314.407 152.085 314.407ZM144.127 302.001C144.127 308.673 148.193 313.33 152.676 313.33C156.637 313.33 160.217 309.855 160.217 303.912C160.217 297.345 156.151 292.618 151.633 292.618C147.706 292.618 144.127 296.163 144.127 302.001ZM165.523 313.399C167.33 313.052 168.407 312.982 168.407 310.654V295.433C168.407 293.105 167.33 293.035 165.523 292.688V292.097H174.802V292.688C172.995 293.035 171.083 293.105 171.083 295.433V310.307C171.083 312.704 171.709 312.948 174.35 312.948H177.234C179.979 312.948 181.23 311.836 182.551 308.743H183.281L181.856 313.99H165.523V313.399ZM184.392 313.399C186.199 313.052 187.276 312.982 187.276 310.654V295.433C187.276 293.105 186.199 293.035 184.392 292.688V292.097H200.586L200.898 296.858H200.134C199.821 294.391 199.23 293.174 196.728 293.174H193.218C190.577 293.174 189.952 293.418 189.952 295.816V302.418H193.045C197.25 302.418 197.667 301.619 197.875 299.499H198.431V306.38H197.875C197.667 304.26 197.25 303.461 193.045 303.461H189.952V310.272C189.952 312.67 190.577 312.913 193.218 312.913H195.999C198.744 312.913 200.03 311.94 201.315 308.951H202.08L200.655 313.99H184.392V313.399ZM212.118 313.399C213.925 313.052 215.002 312.982 215.002 310.654V295.433C215.002 293.105 213.925 293.035 212.118 292.688V292.097H220.076C226.713 292.097 232.447 295.155 232.447 302.905C232.447 310.828 226.852 313.99 220.076 313.99H212.118V313.399ZM217.678 309.542C217.678 311.94 218.408 312.878 221.049 312.878C227.13 312.878 229.424 309.299 229.424 303.252C229.424 297.31 227.095 293.209 219.728 293.209H217.678V309.542ZM246.903 314.407C240.474 314.407 235.991 309.368 235.991 303.044C235.991 296.858 240.474 291.541 247.042 291.541C253.471 291.541 257.989 296.65 257.989 302.87C257.989 309.16 253.471 314.407 246.903 314.407ZM238.945 302.001C238.945 308.673 243.011 313.33 247.494 313.33C251.455 313.33 255.035 309.855 255.035 303.912C255.035 297.345 250.969 292.618 246.451 292.618C242.525 292.618 238.945 296.163 238.945 302.001ZM280.821 314.407C274.184 314.407 269.249 309.751 269.249 302.905C269.249 296.406 273.767 291.541 281.238 291.541C284.331 291.541 286.624 292.375 287.841 293.14C287.841 294.634 287.91 296.128 288.084 297.831H287.041C286.207 294.182 283.601 292.618 280.335 292.618C275.747 292.618 272.342 295.781 272.342 301.827C272.342 308.882 276.859 312.913 282.037 312.913C283.601 312.913 286.451 312.531 287.806 311.002L288.397 311.592C287.007 313.121 284.296 314.407 280.821 314.407ZM289.884 313.399C291.691 313.156 292.177 313.017 292.838 311.453L300.969 291.854H302.151L310.595 311.349C311.325 313.017 311.603 313.156 313.41 313.399V313.99H305.383V313.399C306.877 313.156 308.267 313.017 307.537 311.349L305.591 306.797H296.035L294.123 311.419C293.463 313.017 294.749 313.156 296.243 313.399V313.99H289.884V313.399ZM296.452 305.789H305.139L300.691 295.433L296.452 305.789ZM297.008 288.518C296.625 287.024 297.911 285.703 299.788 285.703C302.151 285.703 302.498 287.858 304.271 287.858C305.452 287.858 306.043 287.128 306.043 286.572H306.46C306.842 288.101 305.556 289.387 303.749 289.387C301.282 289.387 300.969 287.232 299.197 287.232C298.015 287.232 297.494 287.962 297.494 288.518H297.008ZM325.093 314.407C318.664 314.407 314.181 309.368 314.181 303.044C314.181 296.858 318.664 291.541 325.232 291.541C331.66 291.541 336.178 296.65 336.178 302.87C336.178 309.16 331.66 314.407 325.093 314.407ZM317.135 302.001C317.135 308.673 321.2 313.33 325.683 313.33C329.645 313.33 333.224 309.855 333.224 303.912C333.224 297.345 329.158 292.618 324.641 292.618C320.714 292.618 317.135 296.163 317.135 302.001Z" fill="white"/>
<defs>
<linearGradient id="paint0_linear_102_18" x1="222" y1="259.49" x2="108" y2="345.49" gradientUnits="userSpaceOnUse">
<stop stop-color="white"/>
<stop offset="1" stop-color="white" stop-opacity="0"/>
</linearGradient>
</defs>
</svg>
