<svg width="526" height="220" viewBox="0 0 526 220" fill="none" xmlns="http://www.w3.org/2000/svg">
<path d="M1 220.008V212.008V200.008L2.5 188.008L4 176.008L6.5 164.008L10.5 152.508L15 141.508L21.5 131.508L29 122.508L38 114.508L48 108.008L59.5 103.508L71 100.508L83 98.5078L95 96.5078L107 95.5078H119H131L142.5 98.0078L154 101.508L165.5 105.508L176 110.008L187.5 115.508L198 121.008L208 126.508L219 132.508L230 138.008L240.5 143.008L251.5 148.008L262.5 153.008L273 157.508L285 162.008L296.5 165.508L308.5 169.008L320 172.008L331.5 174.508L343.5 175.508L356 176.008H368L380 174.508L391.5 169.008L402 162.508L410.5 154.508L418.5 144.508L425 134.008L430 123.508L434.5 111.508L437.5 100.008L439 88.0078L439.5 76.5078L438 64.0078L434 52.5078L428.5 41.0078L422 31.0078L414.5 22.0078L405.5 14.0078L396 7.00781L385 2.50781L373 1.00781L361 2.50781L350 6.50781L339.5 13.5078L331 21.5078L323.5 31.0078L318 42.0078L315.5 53.5078L316 65.5078L321 76.5078L328.5 86.5078L338 94.0078L348 100.008L359 105.508L370 109.508L381.5 113.508L393 116.508L405 119.008L416.5 121.008L428 121.508H441L453 120.508L464.5 119.008L476.5 116.008L488 112.508L499 108.008L510 103.008L520.5 97.5078L525 95.0078" stroke="#DE6D24" stroke-width="2" stroke-dasharray="3 3"/>
</svg>
